<!-- Generated by IcoMoon.io -->
<svg version="1.1" xmlns="http://www.w3.org/2000/svg" width="1024" height="1024" viewBox="0 0 1024 1024">
<title></title>
<g id="icomoon-ignore">
</g>
<path fill="#c00" d="M891.087 674.59v49.646h84.558c17.325 0 47.063-13.44 48.097-51.017v-19.2c0-32.091-24.824-51.017-48.097-51.017h-42.149v-23.040h83.523v-49.92h-80.162c-20.687 0-48.356 18.103-48.356 51.84v17.28c0 33.737 27.41 51.017 48.356 51.017 58.182 0.274-13.964 0 39.822 0v24.137l-85.592 0.274zM438.044 662.522s45.253-4.114 45.253-66.103c0-61.989-54.82-67.749-54.82-67.749h-98.78v195.566h49.648v-47.177l42.925 47.177h73.438l-57.665-61.714zM418.909 622.476h-39.564v-44.709h39.822s11.119 4.389 11.119 22.217c0 17.829-11.378 22.491-11.378 22.491zM605.867 530.042h-50.424c-35.943 0-48.097 34.56-48.097 51.017v143.177h50.424v-34.286h47.321v34.286h48.873v-143.177c0-41.691-35.685-51.017-48.097-51.017zM605.091 634.545h-47.58v-47.451s0-10.697 15.774-10.697h17.325c13.964 0 14.222 10.697 14.222 10.697v47.451h0.259zM676.978 530.042h52.493v194.194h-52.493v-194.194zM803.168 674.042v-144h-52.234v194.194h122.828v-50.194h-70.594z"></path>
<path fill="#c00" d="M18.101 724.236h204.283s-39.046-188.983 90.246-265.509c28.186-14.537 117.915-68.846 264.792 46.354 4.655-4.114 9.051-7.406 9.051-7.406s-134.465-142.354-284.186-126.446c-75.248 7.131-167.822 79.817-222.125 175.817s-62.061 177.189-62.061 177.189z"></path>
<path fill="#c00" d="M18.101 724.236h204.283s-39.046-188.983 90.246-265.509c28.186-14.537 117.915-68.846 264.792 46.354 4.655-4.114 9.051-7.406 9.051-7.406s-134.465-142.354-284.186-126.446c-75.507 7.131-168.081 79.817-222.384 175.817s-61.802 177.189-61.802 177.189zM443.733 386.59l1.034-18.377c-2.327-1.371-8.792-4.663-25.083-9.6l-1.034 18.103c8.533 3.017 16.808 6.309 25.083 9.874z"></path>
<path fill="#c00" d="M419.168 444.739l-1.034 17.28c8.533 0.274 17.067 1.371 25.6 3.291l1.034-17.006c-8.792-1.92-17.325-3.017-25.6-3.566zM323.491 359.162h2.586l-5.172-16.731c-8.016 0-16.291 0.549-24.824 1.646l4.913 16.183c7.499-0.823 14.998-1.097 22.497-1.097zM335.903 460.099l5.947 18.926c7.499-3.84 14.998-7.131 22.497-9.6l-5.689-18.103c-8.792 2.743-16.291 5.76-22.756 8.777zM218.505 387.962l-11.636-18.926c-6.465 3.566-13.188 7.406-20.17 11.794l11.895 19.2c6.723-4.389 13.188-8.503 19.911-12.069zM271.515 511.39l12.412 19.749c4.396-6.857 9.568-13.166 15.257-19.474l-11.636-18.651c-5.947 5.76-11.378 12.069-16.032 18.377zM234.020 599.71l20.945 17.554c1.034-10.697 2.844-21.394 5.43-32.091l-18.618-15.634c-3.362 10.149-5.689 20.297-7.758 30.171zM120.76 469.425l-18.36-17.006c-6.723 6.857-13.188 13.714-19.135 20.571l19.911 18.103c5.43-7.406 11.378-14.811 17.584-21.669zM42.667 592.030l-29.737-11.52c-4.913 11.794-10.343 25.509-12.929 32.914l29.737 11.52c3.362-9.326 8.792-22.766 12.929-32.914zM230.141 669.379c0.517 14.537 1.81 26.331 3.103 34.56l31.030 11.794c-2.327-10.697-4.655-22.766-6.206-35.657l-27.927-10.697z"></path>
</svg>
