<!-- Generated by IcoMoon.io -->
<svg version="1.1" xmlns="http://www.w3.org/2000/svg" width="1024" height="1024" viewBox="0 0 1024 1024">
<title></title>
<g id="icomoon-ignore">
</g>
<path fill="#cc342d" d="M859.989 3.541c129.408 22.4 166.101 110.848 163.371 203.52l0.64-1.323-58.24 763.221-756.437 51.883c-62.848-2.645-202.923-8.405-209.323-204.245l70.187-128 141.739 331.008 119.68-390.144-1.28 0.299 0.683-1.28 394.88 126.123-59.563-231.723-42.24-166.4 376.32-24.277-26.24-21.76-270.165-220.245 156.117-87.083-0.128 0.427zM0 814.464v0zM218.88 216.448c151.936-150.741 348.032-239.829 423.339-163.84 75.179 75.819-4.48 260.48-156.715 411.136-152.021 150.699-345.728 244.651-420.864 168.832-75.349-75.819 1.92-265.259 154.112-416l0.128-0.128z"></path>
</svg>
